<?xml version="1.0" encoding="UTF-8" standalone="no"?>
<!DOCTYPE svg PUBLIC "-//W3C//DTD SVG 1.0//EN"
 "http://www.w3.org/TR/2001/REC-SVG-20010904/DTD/svg10.dtd" [
 <!ATTLIST svg xmlns:xlink CDATA #FIXED "http://www.w3.org/1999/xlink">
]>
<!-- Generated by Graphviz version 2.20.3 (Tue Oct 14 12:23:50 UTC 2008)
     For user: (kris) Kris Kos -->
<!-- Title: controllers_diagram Pages: 1 -->
<svg width="1023pt" height="1248pt"
 viewBox="0.00 0.00 1023.00 1248.00" xmlns="http://www.w3.org/2000/svg" xmlns:xlink="http://www.w3.org/1999/xlink">
<g id="graph0" class="graph" transform="scale(1 1) rotate(0) translate(4 1244)">
<title>controllers_diagram</title>
<polygon style="fill:white;stroke:white;" points="-4,4 -4,-1244 1019,-1244 1019,4 -4,4"/>
<!-- _diagram_info -->
<g id="node1" class="node"><title>_diagram_info</title>
<text text-anchor="start" x="791.5" y="-321.4" style="font-family:Times New Roman;font-size:11.00;">Controllers diagram</text>
<text text-anchor="start" x="791.5" y="-304.4" style="font-family:Times New Roman;font-size:11.00;">Date: May 29 2009 &#45; 11:33</text>
<text text-anchor="start" x="791.5" y="-287.4" style="font-family:Times New Roman;font-size:11.00;">Migration version: 20090529143113</text>
<text text-anchor="start" x="791.5" y="-270.4" style="font-family:Times New Roman;font-size:11.00;">Generated by RailRoad 0.5.0</text>
</g>
<!-- ImageDatasetsController -->
<g id="node2" class="node"><title>ImageDatasetsController</title>
<polyline style="fill:none;stroke:black;" points="18,-356 153,-356 "/>
<path style="fill:none;stroke:black;" d="M153,-356C159,-356 165,-362 165,-368"/>
<polyline style="fill:none;stroke:black;" points="165,-368 165,-578 "/>
<path style="fill:none;stroke:black;" d="M165,-578C165,-584 159,-590 153,-590"/>
<polyline style="fill:none;stroke:black;" points="153,-590 18,-590 "/>
<path style="fill:none;stroke:black;" d="M18,-590C12,-590 6,-584 6,-578"/>
<polyline style="fill:none;stroke:black;" points="6,-578 6,-368 "/>
<path style="fill:none;stroke:black;" d="M6,-368C6,-362 12,-356 18,-356"/>
<text text-anchor="middle" x="85" y="-572.9" style="font-family:Times New Roman;font-size:11.00;">ImageDatasetsController</text>
<polyline style="fill:none;stroke:black;" points="6,-565 165,-565 "/>
<text text-anchor="start" x="13.5" y="-547.9" style="font-family:Times New Roman;font-size:11.00;">check_image_quality</text>
<text text-anchor="start" x="13.5" y="-530.9" style="font-family:Times New Roman;font-size:11.00;">create</text>
<text text-anchor="start" x="13.5" y="-513.9" style="font-family:Times New Roman;font-size:11.00;">destroy</text>
<text text-anchor="start" x="13.5" y="-496.9" style="font-family:Times New Roman;font-size:11.00;">edit</text>
<text text-anchor="start" x="13.5" y="-479.9" style="font-family:Times New Roman;font-size:11.00;">index</text>
<text text-anchor="start" x="13.5" y="-462.9" style="font-family:Times New Roman;font-size:11.00;">new</text>
<text text-anchor="start" x="13.5" y="-445.9" style="font-family:Times New Roman;font-size:11.00;">set_current_tab</text>
<text text-anchor="start" x="13.5" y="-428.9" style="font-family:Times New Roman;font-size:11.00;">show</text>
<text text-anchor="start" x="13.5" y="-411.9" style="font-family:Times New Roman;font-size:11.00;">update</text>
<polyline style="fill:none;stroke:black;" points="6,-404 165,-404 "/>
<polyline style="fill:none;stroke:black;" points="6,-380 165,-380 "/>
</g>
<!-- AnalysesController -->
<g id="node3" class="node"><title>AnalysesController</title>
<polyline style="fill:none;stroke:black;" points="622,-517 727,-517 "/>
<path style="fill:none;stroke:black;" d="M727,-517C733,-517 739,-523 739,-529"/>
<polyline style="fill:none;stroke:black;" points="739,-529 739,-722 "/>
<path style="fill:none;stroke:black;" d="M739,-722C739,-728 733,-734 727,-734"/>
<polyline style="fill:none;stroke:black;" points="727,-734 622,-734 "/>
<path style="fill:none;stroke:black;" d="M622,-734C616,-734 610,-728 610,-722"/>
<polyline style="fill:none;stroke:black;" points="610,-722 610,-529 "/>
<path style="fill:none;stroke:black;" d="M610,-529C610,-523 616,-517 622,-517"/>
<text text-anchor="middle" x="674" y="-716.9" style="font-family:Times New Roman;font-size:11.00;">AnalysesController</text>
<polyline style="fill:none;stroke:black;" points="610,-709 739,-709 "/>
<text text-anchor="start" x="617.5" y="-692.4" style="font-family:Times New Roman;font-size:11.00;">create</text>
<text text-anchor="start" x="617.5" y="-675.4" style="font-family:Times New Roman;font-size:11.00;">destroy</text>
<text text-anchor="start" x="617.5" y="-658.4" style="font-family:Times New Roman;font-size:11.00;">edit</text>
<text text-anchor="start" x="617.5" y="-641.4" style="font-family:Times New Roman;font-size:11.00;">index</text>
<text text-anchor="start" x="617.5" y="-624.4" style="font-family:Times New Roman;font-size:11.00;">new</text>
<text text-anchor="start" x="617.5" y="-607.4" style="font-family:Times New Roman;font-size:11.00;">set_current_tab</text>
<text text-anchor="start" x="617.5" y="-590.4" style="font-family:Times New Roman;font-size:11.00;">show</text>
<text text-anchor="start" x="617.5" y="-573.4" style="font-family:Times New Roman;font-size:11.00;">update</text>
<polyline style="fill:none;stroke:black;" points="610,-565 739,-565 "/>
<polyline style="fill:none;stroke:black;" points="610,-541 739,-541 "/>
</g>
<!-- ImageDatasetQualityChecksController -->
<g id="node4" class="node"><title>ImageDatasetQualityChecksController</title>
<polyline style="fill:none;stroke:black;" points="522,-1 738,-1 "/>
<path style="fill:none;stroke:black;" d="M738,-1C744,-1 750,-7 750,-13"/>
<polyline style="fill:none;stroke:black;" points="750,-13 750,-189 "/>
<path style="fill:none;stroke:black;" d="M750,-189C750,-195 744,-201 738,-201"/>
<polyline style="fill:none;stroke:black;" points="738,-201 522,-201 "/>
<path style="fill:none;stroke:black;" d="M522,-201C516,-201 510,-195 510,-189"/>
<polyline style="fill:none;stroke:black;" points="510,-189 510,-13 "/>
<path style="fill:none;stroke:black;" d="M510,-13C510,-7 516,-1 522,-1"/>
<text text-anchor="middle" x="630" y="-183.9" style="font-family:Times New Roman;font-size:11.00;">ImageDatasetQualityChecksController</text>
<polyline style="fill:none;stroke:black;" points="510,-176 750,-176 "/>
<text text-anchor="start" x="518" y="-158.9" style="font-family:Times New Roman;font-size:11.00;">create</text>
<text text-anchor="start" x="518" y="-141.9" style="font-family:Times New Roman;font-size:11.00;">destroy</text>
<text text-anchor="start" x="518" y="-124.9" style="font-family:Times New Roman;font-size:11.00;">edit</text>
<text text-anchor="start" x="518" y="-107.9" style="font-family:Times New Roman;font-size:11.00;">index</text>
<text text-anchor="start" x="518" y="-90.9" style="font-family:Times New Roman;font-size:11.00;">new</text>
<text text-anchor="start" x="518" y="-73.9" style="font-family:Times New Roman;font-size:11.00;">show</text>
<text text-anchor="start" x="518" y="-56.9" style="font-family:Times New Roman;font-size:11.00;">update</text>
<polyline style="fill:none;stroke:black;" points="510,-49 750,-49 "/>
<polyline style="fill:none;stroke:black;" points="510,-25 750,-25 "/>
</g>
<!-- ImageSearchesController -->
<g id="node5" class="node"><title>ImageSearchesController</title>
<polyline style="fill:none;stroke:black;" points="49,-1007 190,-1007 "/>
<path style="fill:none;stroke:black;" d="M190,-1007C196,-1007 202,-1013 202,-1019"/>
<polyline style="fill:none;stroke:black;" points="202,-1019 202,-1195 "/>
<path style="fill:none;stroke:black;" d="M202,-1195C202,-1201 196,-1207 190,-1207"/>
<polyline style="fill:none;stroke:black;" points="190,-1207 49,-1207 "/>
<path style="fill:none;stroke:black;" d="M49,-1207C43,-1207 37,-1201 37,-1195"/>
<polyline style="fill:none;stroke:black;" points="37,-1195 37,-1019 "/>
<path style="fill:none;stroke:black;" d="M37,-1019C37,-1013 43,-1007 49,-1007"/>
<text text-anchor="middle" x="119" y="-1189.9" style="font-family:Times New Roman;font-size:11.00;">ImageSearchesController</text>
<polyline style="fill:none;stroke:black;" points="37,-1182 202,-1182 "/>
<text text-anchor="start" x="44.5" y="-1164.9" style="font-family:Times New Roman;font-size:11.00;">create</text>
<text text-anchor="start" x="44.5" y="-1147.9" style="font-family:Times New Roman;font-size:11.00;">destroy</text>
<text text-anchor="start" x="44.5" y="-1130.9" style="font-family:Times New Roman;font-size:11.00;">import_to_analysis</text>
<text text-anchor="start" x="44.5" y="-1113.9" style="font-family:Times New Roman;font-size:11.00;">index</text>
<text text-anchor="start" x="44.5" y="-1096.9" style="font-family:Times New Roman;font-size:11.00;">new</text>
<text text-anchor="start" x="44.5" y="-1079.9" style="font-family:Times New Roman;font-size:11.00;">set_current_tab</text>
<text text-anchor="start" x="44.5" y="-1062.9" style="font-family:Times New Roman;font-size:11.00;">show</text>
<polyline style="fill:none;stroke:black;" points="37,-1055 202,-1055 "/>
<polyline style="fill:none;stroke:black;" points="37,-1031 202,-1031 "/>
</g>
<!-- SeriesDescriptionsController -->
<g id="node6" class="node"><title>SeriesDescriptionsController</title>
<polyline style="fill:none;stroke:black;" points="551,-784 711,-784 "/>
<path style="fill:none;stroke:black;" d="M711,-784C717,-784 723,-790 723,-796"/>
<polyline style="fill:none;stroke:black;" points="723,-796 723,-972 "/>
<path style="fill:none;stroke:black;" d="M723,-972C723,-978 717,-984 711,-984"/>
<polyline style="fill:none;stroke:black;" points="711,-984 551,-984 "/>
<path style="fill:none;stroke:black;" d="M551,-984C545,-984 539,-978 539,-972"/>
<polyline style="fill:none;stroke:black;" points="539,-972 539,-796 "/>
<path style="fill:none;stroke:black;" d="M539,-796C539,-790 545,-784 551,-784"/>
<text text-anchor="middle" x="631" y="-966.9" style="font-family:Times New Roman;font-size:11.00;">SeriesDescriptionsController</text>
<polyline style="fill:none;stroke:black;" points="539,-959 723,-959 "/>
<text text-anchor="start" x="547" y="-941.9" style="font-family:Times New Roman;font-size:11.00;">create</text>
<text text-anchor="start" x="547" y="-924.9" style="font-family:Times New Roman;font-size:11.00;">destroy</text>
<text text-anchor="start" x="547" y="-907.9" style="font-family:Times New Roman;font-size:11.00;">edit</text>
<text text-anchor="start" x="547" y="-890.9" style="font-family:Times New Roman;font-size:11.00;">index</text>
<text text-anchor="start" x="547" y="-873.9" style="font-family:Times New Roman;font-size:11.00;">new</text>
<text text-anchor="start" x="547" y="-856.9" style="font-family:Times New Roman;font-size:11.00;">show</text>
<text text-anchor="start" x="547" y="-839.9" style="font-family:Times New Roman;font-size:11.00;">update</text>
<polyline style="fill:none;stroke:black;" points="539,-832 723,-832 "/>
<polyline style="fill:none;stroke:black;" points="539,-808 723,-808 "/>
</g>
<!-- AnalysisMembershipsController -->
<g id="node7" class="node"><title>AnalysisMembershipsController</title>
<polyline style="fill:none;stroke:black;" points="254,-789 434,-789 "/>
<path style="fill:none;stroke:black;" d="M434,-789C440,-789 446,-795 446,-801"/>
<polyline style="fill:none;stroke:black;" points="446,-801 446,-977 "/>
<path style="fill:none;stroke:black;" d="M446,-977C446,-983 440,-989 434,-989"/>
<polyline style="fill:none;stroke:black;" points="434,-989 254,-989 "/>
<path style="fill:none;stroke:black;" d="M254,-989C248,-989 242,-983 242,-977"/>
<polyline style="fill:none;stroke:black;" points="242,-977 242,-801 "/>
<path style="fill:none;stroke:black;" d="M242,-801C242,-795 248,-789 254,-789"/>
<text text-anchor="middle" x="344" y="-971.9" style="font-family:Times New Roman;font-size:11.00;">AnalysisMembershipsController</text>
<polyline style="fill:none;stroke:black;" points="242,-964 446,-964 "/>
<text text-anchor="start" x="250" y="-946.9" style="font-family:Times New Roman;font-size:11.00;">create</text>
<text text-anchor="start" x="250" y="-929.9" style="font-family:Times New Roman;font-size:11.00;">destroy</text>
<text text-anchor="start" x="250" y="-912.9" style="font-family:Times New Roman;font-size:11.00;">edit</text>
<text text-anchor="start" x="250" y="-895.9" style="font-family:Times New Roman;font-size:11.00;">index</text>
<text text-anchor="start" x="250" y="-878.9" style="font-family:Times New Roman;font-size:11.00;">new</text>
<text text-anchor="start" x="250" y="-861.9" style="font-family:Times New Roman;font-size:11.00;">show</text>
<text text-anchor="start" x="250" y="-844.9" style="font-family:Times New Roman;font-size:11.00;">update</text>
<polyline style="fill:none;stroke:black;" points="242,-837 446,-837 "/>
<polyline style="fill:none;stroke:black;" points="242,-813 446,-813 "/>
</g>
<!-- ParticipantsController -->
<g id="node8" class="node"><title>ParticipantsController</title>
<polyline style="fill:none;stroke:black;" points="31,-29 150,-29 "/>
<path style="fill:none;stroke:black;" d="M150,-29C156,-29 162,-35 162,-41"/>
<polyline style="fill:none;stroke:black;" points="162,-41 162,-234 "/>
<path style="fill:none;stroke:black;" d="M162,-234C162,-240 156,-246 150,-246"/>
<polyline style="fill:none;stroke:black;" points="150,-246 31,-246 "/>
<path style="fill:none;stroke:black;" d="M31,-246C25,-246 19,-240 19,-234"/>
<polyline style="fill:none;stroke:black;" points="19,-234 19,-41 "/>
<path style="fill:none;stroke:black;" d="M19,-41C19,-35 25,-29 31,-29"/>
<text text-anchor="middle" x="90" y="-228.9" style="font-family:Times New Roman;font-size:11.00;">ParticipantsController</text>
<polyline style="fill:none;stroke:black;" points="19,-221 162,-221 "/>
<text text-anchor="start" x="26.5" y="-204.4" style="font-family:Times New Roman;font-size:11.00;">create</text>
<text text-anchor="start" x="26.5" y="-187.4" style="font-family:Times New Roman;font-size:11.00;">destroy</text>
<text text-anchor="start" x="26.5" y="-170.4" style="font-family:Times New Roman;font-size:11.00;">edit</text>
<text text-anchor="start" x="26.5" y="-153.4" style="font-family:Times New Roman;font-size:11.00;">index</text>
<text text-anchor="start" x="26.5" y="-136.4" style="font-family:Times New Roman;font-size:11.00;">new</text>
<text text-anchor="start" x="26.5" y="-119.4" style="font-family:Times New Roman;font-size:11.00;">set_current_tab</text>
<text text-anchor="start" x="26.5" y="-102.4" style="font-family:Times New Roman;font-size:11.00;">show</text>
<text text-anchor="start" x="26.5" y="-85.4" style="font-family:Times New Roman;font-size:11.00;">update</text>
<polyline style="fill:none;stroke:black;" points="19,-77 162,-77 "/>
<polyline style="fill:none;stroke:black;" points="19,-53 162,-53 "/>
</g>
<!-- UsersController -->
<g id="node9" class="node"><title>UsersController</title>
<polyline style="fill:none;stroke:black;" points="864,-386 950,-386 "/>
<path style="fill:none;stroke:black;" d="M950,-386C956,-386 962,-392 962,-398"/>
<polyline style="fill:none;stroke:black;" points="962,-398 962,-523 "/>
<path style="fill:none;stroke:black;" d="M962,-523C962,-529 956,-535 950,-535"/>
<polyline style="fill:none;stroke:black;" points="950,-535 864,-535 "/>
<path style="fill:none;stroke:black;" d="M864,-535C858,-535 852,-529 852,-523"/>
<polyline style="fill:none;stroke:black;" points="852,-523 852,-398 "/>
<path style="fill:none;stroke:black;" d="M852,-398C852,-392 858,-386 864,-386"/>
<text text-anchor="middle" x="907" y="-517.9" style="font-family:Times New Roman;font-size:11.00;">UsersController</text>
<polyline style="fill:none;stroke:black;" points="852,-510 962,-510 "/>
<text text-anchor="start" x="860" y="-493.4" style="font-family:Times New Roman;font-size:11.00;">create</text>
<text text-anchor="start" x="860" y="-476.4" style="font-family:Times New Roman;font-size:11.00;">index</text>
<text text-anchor="start" x="860" y="-459.4" style="font-family:Times New Roman;font-size:11.00;">new</text>
<text text-anchor="start" x="860" y="-442.4" style="font-family:Times New Roman;font-size:11.00;">show</text>
<polyline style="fill:none;stroke:black;" points="852,-434 962,-434 "/>
<polyline style="fill:none;stroke:black;" points="852,-410 962,-410 "/>
</g>
<!-- VisitsController -->
<g id="node10" class="node"><title>VisitsController</title>
<polyline style="fill:none;stroke:black;" points="264,-209 408,-209 "/>
<path style="fill:none;stroke:black;" d="M408,-209C414,-209 420,-215 420,-221"/>
<polyline style="fill:none;stroke:black;" points="420,-221 420,-567 "/>
<path style="fill:none;stroke:black;" d="M420,-567C420,-573 414,-579 408,-579"/>
<polyline style="fill:none;stroke:black;" points="408,-579 264,-579 "/>
<path style="fill:none;stroke:black;" d="M264,-579C258,-579 252,-573 252,-567"/>
<polyline style="fill:none;stroke:black;" points="252,-567 252,-221 "/>
<path style="fill:none;stroke:black;" d="M252,-221C252,-215 258,-209 264,-209"/>
<text text-anchor="middle" x="336" y="-561.9" style="font-family:Times New Roman;font-size:11.00;">VisitsController</text>
<polyline style="fill:none;stroke:black;" points="252,-554 420,-554 "/>
<text text-anchor="start" x="260" y="-536.9" style="font-family:Times New Roman;font-size:11.00;">assigned_to_who</text>
<text text-anchor="start" x="260" y="-519.9" style="font-family:Times New Roman;font-size:11.00;">by_month</text>
<text text-anchor="start" x="260" y="-502.9" style="font-family:Times New Roman;font-size:11.00;">by_week</text>
<text text-anchor="start" x="260" y="-485.9" style="font-family:Times New Roman;font-size:11.00;">create</text>
<text text-anchor="start" x="260" y="-468.9" style="font-family:Times New Roman;font-size:11.00;">destroy</text>
<text text-anchor="start" x="260" y="-451.9" style="font-family:Times New Roman;font-size:11.00;">edit</text>
<text text-anchor="start" x="260" y="-434.9" style="font-family:Times New Roman;font-size:11.00;">find</text>
<text text-anchor="start" x="260" y="-417.9" style="font-family:Times New Roman;font-size:11.00;">found</text>
<text text-anchor="start" x="260" y="-400.9" style="font-family:Times New Roman;font-size:11.00;">in_scan_procedure</text>
<text text-anchor="start" x="260" y="-383.9" style="font-family:Times New Roman;font-size:11.00;">index</text>
<text text-anchor="start" x="260" y="-366.9" style="font-family:Times New Roman;font-size:11.00;">index_by_scan_procedure</text>
<text text-anchor="start" x="260" y="-349.9" style="font-family:Times New Roman;font-size:11.00;">index_by_scope</text>
<text text-anchor="start" x="260" y="-332.9" style="font-family:Times New Roman;font-size:11.00;">index_by_user_id</text>
<text text-anchor="start" x="260" y="-315.9" style="font-family:Times New Roman;font-size:11.00;">new</text>
<text text-anchor="start" x="260" y="-298.9" style="font-family:Times New Roman;font-size:11.00;">set_current_tab</text>
<text text-anchor="start" x="260" y="-281.9" style="font-family:Times New Roman;font-size:11.00;">show</text>
<text text-anchor="start" x="260" y="-264.9" style="font-family:Times New Roman;font-size:11.00;">update</text>
<polyline style="fill:none;stroke:black;" points="252,-257 420,-257 "/>
<polyline style="fill:none;stroke:black;" points="252,-233 420,-233 "/>
</g>
<!-- LogFilesController -->
<g id="node11" class="node"><title>LogFilesController</title>
<polyline style="fill:none;stroke:black;" points="850,-29 953,-29 "/>
<path style="fill:none;stroke:black;" d="M953,-29C959,-29 965,-35 965,-41"/>
<polyline style="fill:none;stroke:black;" points="965,-41 965,-234 "/>
<path style="fill:none;stroke:black;" d="M965,-234C965,-240 959,-246 953,-246"/>
<polyline style="fill:none;stroke:black;" points="953,-246 850,-246 "/>
<path style="fill:none;stroke:black;" d="M850,-246C844,-246 838,-240 838,-234"/>
<polyline style="fill:none;stroke:black;" points="838,-234 838,-41 "/>
<path style="fill:none;stroke:black;" d="M838,-41C838,-35 844,-29 850,-29"/>
<text text-anchor="middle" x="901" y="-228.9" style="font-family:Times New Roman;font-size:11.00;">LogFilesController</text>
<polyline style="fill:none;stroke:black;" points="838,-221 965,-221 "/>
<text text-anchor="start" x="845.5" y="-204.4" style="font-family:Times New Roman;font-size:11.00;">create</text>
<text text-anchor="start" x="845.5" y="-187.4" style="font-family:Times New Roman;font-size:11.00;">destroy</text>
<text text-anchor="start" x="845.5" y="-170.4" style="font-family:Times New Roman;font-size:11.00;">edit</text>
<text text-anchor="start" x="845.5" y="-153.4" style="font-family:Times New Roman;font-size:11.00;">index</text>
<text text-anchor="start" x="845.5" y="-136.4" style="font-family:Times New Roman;font-size:11.00;">new</text>
<text text-anchor="start" x="845.5" y="-119.4" style="font-family:Times New Roman;font-size:11.00;">set_current_tab</text>
<text text-anchor="start" x="845.5" y="-102.4" style="font-family:Times New Roman;font-size:11.00;">show</text>
<text text-anchor="start" x="845.5" y="-85.4" style="font-family:Times New Roman;font-size:11.00;">update</text>
<polyline style="fill:none;stroke:black;" points="838,-77 965,-77 "/>
<polyline style="fill:none;stroke:black;" points="838,-53 965,-53 "/>
</g>
<!-- SessionsController -->
<g id="node12" class="node"><title>SessionsController</title>
<polyline style="fill:none;stroke:black;" points="314,-47 416,-47 "/>
<path style="fill:none;stroke:black;" d="M416,-47C422,-47 428,-53 428,-59"/>
<polyline style="fill:none;stroke:black;" points="428,-59 428,-167 "/>
<path style="fill:none;stroke:black;" d="M428,-167C428,-173 422,-179 416,-179"/>
<polyline style="fill:none;stroke:black;" points="416,-179 314,-179 "/>
<path style="fill:none;stroke:black;" d="M314,-179C308,-179 302,-173 302,-167"/>
<polyline style="fill:none;stroke:black;" points="302,-167 302,-59 "/>
<path style="fill:none;stroke:black;" d="M302,-59C302,-53 308,-47 314,-47"/>
<text text-anchor="middle" x="365" y="-161.9" style="font-family:Times New Roman;font-size:11.00;">SessionsController</text>
<polyline style="fill:none;stroke:black;" points="302,-154 428,-154 "/>
<text text-anchor="start" x="310" y="-136.9" style="font-family:Times New Roman;font-size:11.00;">create</text>
<text text-anchor="start" x="310" y="-119.9" style="font-family:Times New Roman;font-size:11.00;">destroy</text>
<text text-anchor="start" x="310" y="-102.9" style="font-family:Times New Roman;font-size:11.00;">new</text>
<polyline style="fill:none;stroke:black;" points="302,-95 428,-95 "/>
<polyline style="fill:none;stroke:black;" points="302,-71 428,-71 "/>
</g>
<!-- ImageCommentsController -->
<g id="node13" class="node"><title>ImageCommentsController</title>
<polyline style="fill:none;stroke:black;" points="13,-663 165,-663 "/>
<path style="fill:none;stroke:black;" d="M165,-663C171,-663 177,-669 177,-675"/>
<polyline style="fill:none;stroke:black;" points="177,-675 177,-868 "/>
<path style="fill:none;stroke:black;" d="M177,-868C177,-874 171,-880 165,-880"/>
<polyline style="fill:none;stroke:black;" points="165,-880 13,-880 "/>
<path style="fill:none;stroke:black;" d="M13,-880C7,-880 1,-874 1,-868"/>
<polyline style="fill:none;stroke:black;" points="1,-868 1,-675 "/>
<path style="fill:none;stroke:black;" d="M1,-675C1,-669 7,-663 13,-663"/>
<text text-anchor="middle" x="89" y="-862.9" style="font-family:Times New Roman;font-size:11.00;">ImageCommentsController</text>
<polyline style="fill:none;stroke:black;" points="1,-855 177,-855 "/>
<text text-anchor="start" x="9" y="-838.4" style="font-family:Times New Roman;font-size:11.00;">create</text>
<text text-anchor="start" x="9" y="-821.4" style="font-family:Times New Roman;font-size:11.00;">destroy</text>
<text text-anchor="start" x="9" y="-804.4" style="font-family:Times New Roman;font-size:11.00;">edit</text>
<text text-anchor="start" x="9" y="-787.4" style="font-family:Times New Roman;font-size:11.00;">index</text>
<text text-anchor="start" x="9" y="-770.4" style="font-family:Times New Roman;font-size:11.00;">new</text>
<text text-anchor="start" x="9" y="-753.4" style="font-family:Times New Roman;font-size:11.00;">set_current_tab</text>
<text text-anchor="start" x="9" y="-736.4" style="font-family:Times New Roman;font-size:11.00;">show</text>
<text text-anchor="start" x="9" y="-719.4" style="font-family:Times New Roman;font-size:11.00;">update</text>
<polyline style="fill:none;stroke:black;" points="1,-711 177,-711 "/>
<polyline style="fill:none;stroke:black;" points="1,-687 177,-687 "/>
</g>
<!-- EnrollmentsController -->
<g id="node14" class="node"><title>EnrollmentsController</title>
<polyline style="fill:none;stroke:black;" points="853,-679 976,-679 "/>
<path style="fill:none;stroke:black;" d="M976,-679C982,-679 988,-685 988,-691"/>
<polyline style="fill:none;stroke:black;" points="988,-691 988,-884 "/>
<path style="fill:none;stroke:black;" d="M988,-884C988,-890 982,-896 976,-896"/>
<polyline style="fill:none;stroke:black;" points="976,-896 853,-896 "/>
<path style="fill:none;stroke:black;" d="M853,-896C847,-896 841,-890 841,-884"/>
<polyline style="fill:none;stroke:black;" points="841,-884 841,-691 "/>
<path style="fill:none;stroke:black;" d="M841,-691C841,-685 847,-679 853,-679"/>
<text text-anchor="middle" x="914" y="-878.9" style="font-family:Times New Roman;font-size:11.00;">EnrollmentsController</text>
<polyline style="fill:none;stroke:black;" points="841,-871 988,-871 "/>
<text text-anchor="start" x="848.5" y="-854.4" style="font-family:Times New Roman;font-size:11.00;">create</text>
<text text-anchor="start" x="848.5" y="-837.4" style="font-family:Times New Roman;font-size:11.00;">destroy</text>
<text text-anchor="start" x="848.5" y="-820.4" style="font-family:Times New Roman;font-size:11.00;">edit</text>
<text text-anchor="start" x="848.5" y="-803.4" style="font-family:Times New Roman;font-size:11.00;">index</text>
<text text-anchor="start" x="848.5" y="-786.4" style="font-family:Times New Roman;font-size:11.00;">new</text>
<text text-anchor="start" x="848.5" y="-769.4" style="font-family:Times New Roman;font-size:11.00;">set_current_tab</text>
<text text-anchor="start" x="848.5" y="-752.4" style="font-family:Times New Roman;font-size:11.00;">show</text>
<text text-anchor="start" x="848.5" y="-735.4" style="font-family:Times New Roman;font-size:11.00;">update</text>
<polyline style="fill:none;stroke:black;" points="841,-727 988,-727 "/>
<polyline style="fill:none;stroke:black;" points="841,-703 988,-703 "/>
</g>
<!-- RecruitmentGroupsController -->
<g id="node15" class="node"><title>RecruitmentGroupsController</title>
<polyline style="fill:none;stroke:black;" points="782,-1011 948,-1011 "/>
<path style="fill:none;stroke:black;" d="M948,-1011C954,-1011 960,-1017 960,-1023"/>
<polyline style="fill:none;stroke:black;" points="960,-1023 960,-1199 "/>
<path style="fill:none;stroke:black;" d="M960,-1199C960,-1205 954,-1211 948,-1211"/>
<polyline style="fill:none;stroke:black;" points="948,-1211 782,-1211 "/>
<path style="fill:none;stroke:black;" d="M782,-1211C776,-1211 770,-1205 770,-1199"/>
<polyline style="fill:none;stroke:black;" points="770,-1199 770,-1023 "/>
<path style="fill:none;stroke:black;" d="M770,-1023C770,-1017 776,-1011 782,-1011"/>
<text text-anchor="middle" x="865" y="-1193.9" style="font-family:Times New Roman;font-size:11.00;">RecruitmentGroupsController</text>
<polyline style="fill:none;stroke:black;" points="770,-1186 960,-1186 "/>
<text text-anchor="start" x="778" y="-1168.9" style="font-family:Times New Roman;font-size:11.00;">create</text>
<text text-anchor="start" x="778" y="-1151.9" style="font-family:Times New Roman;font-size:11.00;">destroy</text>
<text text-anchor="start" x="778" y="-1134.9" style="font-family:Times New Roman;font-size:11.00;">edit</text>
<text text-anchor="start" x="778" y="-1117.9" style="font-family:Times New Roman;font-size:11.00;">index</text>
<text text-anchor="start" x="778" y="-1100.9" style="font-family:Times New Roman;font-size:11.00;">new</text>
<text text-anchor="start" x="778" y="-1083.9" style="font-family:Times New Roman;font-size:11.00;">show</text>
<text text-anchor="start" x="778" y="-1066.9" style="font-family:Times New Roman;font-size:11.00;">update</text>
<polyline style="fill:none;stroke:black;" points="770,-1059 960,-1059 "/>
<polyline style="fill:none;stroke:black;" points="770,-1035 960,-1035 "/>
</g>
<!-- StudiesController -->
<g id="node16" class="node"><title>StudiesController</title>
<polyline style="fill:none;stroke:black;" points="444,-1039 538,-1039 "/>
<path style="fill:none;stroke:black;" d="M538,-1039C544,-1039 550,-1045 550,-1051"/>
<polyline style="fill:none;stroke:black;" points="550,-1051 550,-1227 "/>
<path style="fill:none;stroke:black;" d="M550,-1227C550,-1233 544,-1239 538,-1239"/>
<polyline style="fill:none;stroke:black;" points="538,-1239 444,-1239 "/>
<path style="fill:none;stroke:black;" d="M444,-1239C438,-1239 432,-1233 432,-1227"/>
<polyline style="fill:none;stroke:black;" points="432,-1227 432,-1051 "/>
<path style="fill:none;stroke:black;" d="M432,-1051C432,-1045 438,-1039 444,-1039"/>
<text text-anchor="middle" x="491" y="-1221.9" style="font-family:Times New Roman;font-size:11.00;">StudiesController</text>
<polyline style="fill:none;stroke:black;" points="432,-1214 550,-1214 "/>
<text text-anchor="start" x="440" y="-1196.9" style="font-family:Times New Roman;font-size:11.00;">create</text>
<text text-anchor="start" x="440" y="-1179.9" style="font-family:Times New Roman;font-size:11.00;">destroy</text>
<text text-anchor="start" x="440" y="-1162.9" style="font-family:Times New Roman;font-size:11.00;">edit</text>
<text text-anchor="start" x="440" y="-1145.9" style="font-family:Times New Roman;font-size:11.00;">index</text>
<text text-anchor="start" x="440" y="-1128.9" style="font-family:Times New Roman;font-size:11.00;">new</text>
<text text-anchor="start" x="440" y="-1111.9" style="font-family:Times New Roman;font-size:11.00;">show</text>
<text text-anchor="start" x="440" y="-1094.9" style="font-family:Times New Roman;font-size:11.00;">update</text>
<polyline style="fill:none;stroke:black;" points="432,-1087 550,-1087 "/>
<polyline style="fill:none;stroke:black;" points="432,-1063 550,-1063 "/>
</g>
<!-- ScanProceduresController -->
<g id="node17" class="node"><title>ScanProceduresController</title>
<polyline style="fill:none;stroke:black;" points="541,-266 687,-266 "/>
<path style="fill:none;stroke:black;" d="M687,-266C693,-266 699,-272 699,-278"/>
<polyline style="fill:none;stroke:black;" points="699,-278 699,-471 "/>
<path style="fill:none;stroke:black;" d="M699,-471C699,-477 693,-483 687,-483"/>
<polyline style="fill:none;stroke:black;" points="687,-483 541,-483 "/>
<path style="fill:none;stroke:black;" d="M541,-483C535,-483 529,-477 529,-471"/>
<polyline style="fill:none;stroke:black;" points="529,-471 529,-278 "/>
<path style="fill:none;stroke:black;" d="M529,-278C529,-272 535,-266 541,-266"/>
<text text-anchor="middle" x="614" y="-465.9" style="font-family:Times New Roman;font-size:11.00;">ScanProceduresController</text>
<polyline style="fill:none;stroke:black;" points="529,-458 699,-458 "/>
<text text-anchor="start" x="537" y="-441.4" style="font-family:Times New Roman;font-size:11.00;">create</text>
<text text-anchor="start" x="537" y="-424.4" style="font-family:Times New Roman;font-size:11.00;">destroy</text>
<text text-anchor="start" x="537" y="-407.4" style="font-family:Times New Roman;font-size:11.00;">edit</text>
<text text-anchor="start" x="537" y="-390.4" style="font-family:Times New Roman;font-size:11.00;">index</text>
<text text-anchor="start" x="537" y="-373.4" style="font-family:Times New Roman;font-size:11.00;">new</text>
<text text-anchor="start" x="537" y="-356.4" style="font-family:Times New Roman;font-size:11.00;">set_current_tab</text>
<text text-anchor="start" x="537" y="-339.4" style="font-family:Times New Roman;font-size:11.00;">show</text>
<text text-anchor="start" x="537" y="-322.4" style="font-family:Times New Roman;font-size:11.00;">update</text>
<polyline style="fill:none;stroke:black;" points="529,-314 699,-314 "/>
<polyline style="fill:none;stroke:black;" points="529,-290 699,-290 "/>
</g>
<!-- ApplicationController -->
<g id="node18" class="node"><title>ApplicationController</title>
<polyline style="fill:none;stroke:black;" points="339,-590 459,-590 "/>
<path style="fill:none;stroke:black;" d="M459,-590C465,-590 471,-596 471,-602"/>
<polyline style="fill:none;stroke:black;" points="471,-602 471,-675 "/>
<path style="fill:none;stroke:black;" d="M471,-675C471,-681 465,-687 459,-687"/>
<polyline style="fill:none;stroke:black;" points="459,-687 339,-687 "/>
<path style="fill:none;stroke:black;" d="M339,-687C333,-687 327,-681 327,-675"/>
<polyline style="fill:none;stroke:black;" points="327,-675 327,-602 "/>
<path style="fill:none;stroke:black;" d="M327,-602C327,-596 333,-590 339,-590"/>
<text text-anchor="middle" x="399" y="-669.9" style="font-family:Times New Roman;font-size:11.00;">ApplicationController</text>
<polyline style="fill:none;stroke:black;" points="327,-662 471,-662 "/>
<polyline style="fill:none;stroke:black;" points="327,-638 471,-638 "/>
<polyline style="fill:none;stroke:black;" points="327,-614 471,-614 "/>
</g>
<!-- ApplicationController&#45;&gt;ImageDatasetsController -->
<g id="edge2" class="edge"><title>ApplicationController&#45;&gt;ImageDatasetsController</title>
<path style="fill:none;stroke:black;" d="M317,-612C295,-603 270,-593 249,-582 221,-567 191,-549 165,-532"/>
<polygon style="fill:none;stroke:black;" points="316.415,-615.536 327,-616 319.015,-609.036 316.415,-615.536"/>
</g>
<!-- ApplicationController&#45;&gt;AnalysesController -->
<g id="edge4" class="edge"><title>ApplicationController&#45;&gt;AnalysesController</title>
<path style="fill:none;stroke:black;" d="M481,-636C522,-634 571,-631 610,-629"/>
<polygon style="fill:none;stroke:black;" points="481,-632.5 471,-636 481,-639.5 481,-632.5"/>
</g>
<!-- ApplicationController&#45;&gt;ImageDatasetQualityChecksController -->
<g id="edge6" class="edge"><title>ApplicationController&#45;&gt;ImageDatasetQualityChecksController</title>
<path style="fill:none;stroke:black;" d="M423,-581C474,-440 463,-395 526,-263 536,-242 547,-221 560,-201"/>
<polygon style="fill:none;stroke:black;" points="419.842,-579.406 420,-590 426.483,-581.62 419.842,-579.406"/>
</g>
<!-- ApplicationController&#45;&gt;ImageSearchesController -->
<g id="edge8" class="edge"><title>ApplicationController&#45;&gt;ImageSearchesController</title>
<path style="fill:none;stroke:black;" d="M325,-694C295,-720 262,-751 239,-786 194,-853 162,-940 143,-1007"/>
<polygon style="fill:none;stroke:black;" points="327.779,-696.219 333,-687 323.169,-690.951 327.779,-696.219"/>
</g>
<!-- ApplicationController&#45;&gt;SeriesDescriptionsController -->
<g id="edge10" class="edge"><title>ApplicationController&#45;&gt;SeriesDescriptionsController</title>
<path style="fill:none;stroke:black;" d="M452,-694C478,-721 509,-755 539,-786"/>
<polygon style="fill:none;stroke:black;" points="454.546,-691.596 445,-687 449.596,-696.546 454.546,-691.596"/>
</g>
<!-- ApplicationController&#45;&gt;AnalysisMembershipsController -->
<g id="edge12" class="edge"><title>ApplicationController&#45;&gt;AnalysisMembershipsController</title>
<path style="fill:none;stroke:black;" d="M386,-697C380,-724 372,-758 366,-789"/>
<polygon style="fill:none;stroke:black;" points="389.471,-697.492 388,-687 382.607,-696.119 389.471,-697.492"/>
</g>
<!-- ApplicationController&#45;&gt;ParticipantsController -->
<g id="edge14" class="edge"><title>ApplicationController&#45;&gt;ParticipantsController</title>
<path style="fill:none;stroke:black;" d="M317,-622C293,-614 268,-601 249,-582 173,-505 205,-455 168,-353 156,-318 142,-280 130,-246"/>
<polygon style="fill:none;stroke:black;" points="316.416,-625.479 327,-625 318.427,-618.774 316.416,-625.479"/>
</g>
<!-- ApplicationController&#45;&gt;UsersController -->
<g id="edge16" class="edge"><title>ApplicationController&#45;&gt;UsersController</title>
<path style="fill:none;stroke:black;" d="M475,-584C513,-560 561,-532 607,-514 689,-483 790,-470 852,-465"/>
<polygon style="fill:none;stroke:black;" points="472.9,-581.2 467,-590 477.1,-586.8 472.9,-581.2"/>
</g>
<!-- ApplicationController&#45;&gt;VisitsController -->
<g id="edge18" class="edge"><title>ApplicationController&#45;&gt;VisitsController</title>
<path style="fill:none;stroke:black;" d="M383,-580C383,-580 383,-579 383,-579"/>
<polygon style="fill:none;stroke:black;" points="379.774,-581.427 386,-590 386.479,-579.416 379.774,-581.427"/>
</g>
<!-- ApplicationController&#45;&gt;LogFilesController -->
<g id="edge20" class="edge"><title>ApplicationController&#45;&gt;LogFilesController</title>
<path style="fill:none;stroke:black;" d="M479,-584C516,-561 563,-533 607,-514 647,-496 670,-517 702,-486 780,-413 724,-349 780,-259 795,-234 817,-210 838,-190"/>
<polygon style="fill:none;stroke:black;" points="476.379,-581.541 470,-590 480.262,-587.365 476.379,-581.541"/>
</g>
<!-- ApplicationController&#45;&gt;SessionsController -->
<g id="edge22" class="edge"><title>ApplicationController&#45;&gt;SessionsController</title>
<path style="fill:none;stroke:black;" d="M423,-580C457,-416 468,-364 423,-206 420,-197 417,-188 412,-179"/>
<polygon style="fill:none;stroke:black;" points="419.529,-579.508 421,-590 426.393,-580.881 419.529,-579.508"/>
</g>
<!-- ApplicationController&#45;&gt;ImageCommentsController -->
<g id="edge24" class="edge"><title>ApplicationController&#45;&gt;ImageCommentsController</title>
<path style="fill:none;stroke:black;" d="M318,-674C274,-692 222,-715 177,-734"/>
<polygon style="fill:none;stroke:black;" points="319.283,-677.26 327,-670 316.44,-670.863 319.283,-677.26"/>
</g>
<!-- ApplicationController&#45;&gt;EnrollmentsController -->
<g id="edge26" class="edge"><title>ApplicationController&#45;&gt;EnrollmentsController</title>
<path style="fill:none;stroke:black;" d="M480,-684C517,-703 563,-724 607,-737 685,-761 778,-775 841,-782"/>
<polygon style="fill:none;stroke:black;" points="481.441,-680.797 471,-679 478.042,-686.916 481.441,-680.797"/>
</g>
<!-- ApplicationController&#45;&gt;RecruitmentGroupsController -->
<g id="edge28" class="edge"><title>ApplicationController&#45;&gt;RecruitmentGroupsController</title>
<path style="fill:none;stroke:black;" d="M480,-679C518,-698 564,-719 607,-737 659,-759 685,-742 726,-781 790,-842 826,-938 845,-1011"/>
<polygon style="fill:none;stroke:black;" points="481.56,-675.863 471,-675 478.717,-682.26 481.56,-675.863"/>
</g>
<!-- ApplicationController&#45;&gt;StudiesController -->
<g id="edge30" class="edge"><title>ApplicationController&#45;&gt;StudiesController</title>
<path style="fill:none;stroke:black;" d="M422,-696C432,-723 442,-756 449,-786 468,-870 479,-968 485,-1039"/>
<polygon style="fill:none;stroke:black;" points="425.26,-694.717 418,-687 418.863,-697.56 425.26,-694.717"/>
</g>
<!-- ApplicationController&#45;&gt;ScanProceduresController -->
<g id="edge32" class="edge"><title>ApplicationController&#45;&gt;ScanProceduresController</title>
<path style="fill:none;stroke:black;" d="M445,-582C470,-552 501,-515 529,-480"/>
<polygon style="fill:none;stroke:black;" points="442.2,-579.9 439,-590 447.8,-584.1 442.2,-579.9"/>
</g>
</g>
</svg>
