<?xml version="1.0" encoding="UTF-8" standalone="no"?>
<!DOCTYPE svg PUBLIC "-//W3C//DTD SVG 1.0//EN"
 "http://www.w3.org/TR/2001/REC-SVG-20010904/DTD/svg10.dtd" [
 <!ATTLIST svg xmlns:xlink CDATA #FIXED "http://www.w3.org/1999/xlink">
]>
<!-- Generated by Graphviz version 2.20.3 (Tue Oct 14 12:23:50 UTC 2008)
     For user: (kris) Kris Kos -->
<!-- Title: models_diagram Pages: 1 -->
<svg width="1128pt" height="2218pt"
 viewBox="0.00 0.00 1128.00 2218.00" xmlns="http://www.w3.org/2000/svg" xmlns:xlink="http://www.w3.org/1999/xlink">
<g id="graph0" class="graph" transform="scale(1 1) rotate(0) translate(4 2214)">
<title>models_diagram</title>
<polygon style="fill:white;stroke:white;" points="-4,4 -4,-2214 1124,-2214 1124,4 -4,4"/>
<!-- _diagram_info -->
<g id="node1" class="node"><title>_diagram_info</title>
<text text-anchor="start" x="8" y="-2129.4" style="font-family:Times New Roman;font-size:11.00;">Models diagram</text>
<text text-anchor="start" x="8" y="-2112.4" style="font-family:Times New Roman;font-size:11.00;">Date: Jun 02 2009 &#45; 11:39</text>
<text text-anchor="start" x="8" y="-2095.4" style="font-family:Times New Roman;font-size:11.00;">Migration version: 20090529213634</text>
<text text-anchor="start" x="8" y="-2078.4" style="font-family:Times New Roman;font-size:11.00;">Generated by RailRoad 0.5.0</text>
</g>
<!-- SeriesDescription -->
<g id="node2" class="node"><title>SeriesDescription</title>
<polyline style="fill:none;stroke:black;" points="262,-2032 395,-2032 "/>
<path style="fill:none;stroke:black;" d="M395,-2032C401,-2032 407,-2038 407,-2044"/>
<polyline style="fill:none;stroke:black;" points="407,-2044 407,-2172 "/>
<path style="fill:none;stroke:black;" d="M407,-2172C407,-2178 401,-2184 395,-2184"/>
<polyline style="fill:none;stroke:black;" points="395,-2184 262,-2184 "/>
<path style="fill:none;stroke:black;" d="M262,-2184C256,-2184 250,-2178 250,-2172"/>
<polyline style="fill:none;stroke:black;" points="250,-2172 250,-2044 "/>
<path style="fill:none;stroke:black;" d="M250,-2044C250,-2038 256,-2032 262,-2032"/>
<text text-anchor="middle" x="328" y="-2166.9" style="font-family:Times New Roman;font-size:11.00;">SeriesDescription</text>
<polyline style="fill:none;stroke:black;" points="250,-2159 407,-2159 "/>
<text text-anchor="start" x="257.5" y="-2141.9" style="font-family:Times New Roman;font-size:11.00;">long_description :string</text>
<text text-anchor="start" x="257.5" y="-2124.9" style="font-family:Times New Roman;font-size:11.00;">short_description :string</text>
<text text-anchor="start" x="257.5" y="-2107.9" style="font-family:Times New Roman;font-size:11.00;">anat_type :string</text>
<text text-anchor="start" x="257.5" y="-2090.9" style="font-family:Times New Roman;font-size:11.00;">acq_plane :string</text>
<text text-anchor="start" x="257.5" y="-2073.9" style="font-family:Times New Roman;font-size:11.00;">created_at :datetime</text>
<text text-anchor="start" x="257.5" y="-2056.9" style="font-family:Times New Roman;font-size:11.00;">updated_at :datetime</text>
<text text-anchor="start" x="257.5" y="-2039.9" style="font-family:Times New Roman;font-size:11.00;">ignore :text</text>
</g>
<!-- AnalysisMembership -->
<g id="node3" class="node"><title>AnalysisMembership</title>
<polyline style="fill:none;stroke:black;" points="568,-385 717,-385 "/>
<path style="fill:none;stroke:black;" d="M717,-385C723,-385 729,-391 729,-397"/>
<polyline style="fill:none;stroke:black;" points="729,-397 729,-474 "/>
<path style="fill:none;stroke:black;" d="M729,-474C729,-480 723,-486 717,-486"/>
<polyline style="fill:none;stroke:black;" points="717,-486 568,-486 "/>
<path style="fill:none;stroke:black;" d="M568,-486C562,-486 556,-480 556,-474"/>
<polyline style="fill:none;stroke:black;" points="556,-474 556,-397 "/>
<path style="fill:none;stroke:black;" d="M556,-397C556,-391 562,-385 568,-385"/>
<text text-anchor="middle" x="642" y="-468.9" style="font-family:Times New Roman;font-size:11.00;">AnalysisMembership</text>
<polyline style="fill:none;stroke:black;" points="556,-461 729,-461 "/>
<text text-anchor="start" x="563.5" y="-444.4" style="font-family:Times New Roman;font-size:11.00;">excluded :boolean</text>
<text text-anchor="start" x="563.5" y="-427.4" style="font-family:Times New Roman;font-size:11.00;">exclusion_comment :string</text>
<text text-anchor="start" x="563.5" y="-410.4" style="font-family:Times New Roman;font-size:11.00;">created_at :datetime</text>
<text text-anchor="start" x="563.5" y="-393.4" style="font-family:Times New Roman;font-size:11.00;">updated_at :datetime</text>
</g>
<!-- Participant -->
<g id="node4" class="node"><title>Participant</title>
<polyline style="fill:none;stroke:black;" points="834,-1730 957,-1730 "/>
<path style="fill:none;stroke:black;" d="M957,-1730C963,-1730 969,-1736 969,-1742"/>
<polyline style="fill:none;stroke:black;" points="969,-1742 969,-1921 "/>
<path style="fill:none;stroke:black;" d="M969,-1921C969,-1927 963,-1933 957,-1933"/>
<polyline style="fill:none;stroke:black;" points="957,-1933 834,-1933 "/>
<path style="fill:none;stroke:black;" d="M834,-1933C828,-1933 822,-1927 822,-1921"/>
<polyline style="fill:none;stroke:black;" points="822,-1921 822,-1742 "/>
<path style="fill:none;stroke:black;" d="M822,-1742C822,-1736 828,-1730 834,-1730"/>
<text text-anchor="middle" x="895" y="-1915.9" style="font-family:Times New Roman;font-size:11.00;">Participant</text>
<polyline style="fill:none;stroke:black;" points="822,-1908 969,-1908 "/>
<text text-anchor="start" x="829.5" y="-1891.4" style="font-family:Times New Roman;font-size:11.00;">age :integer</text>
<text text-anchor="start" x="829.5" y="-1874.4" style="font-family:Times New Roman;font-size:11.00;">ed_years :integer</text>
<text text-anchor="start" x="829.5" y="-1857.4" style="font-family:Times New Roman;font-size:11.00;">apoe_e1 :integer</text>
<text text-anchor="start" x="829.5" y="-1840.4" style="font-family:Times New Roman;font-size:11.00;">apoe_e2 :integer</text>
<text text-anchor="start" x="829.5" y="-1823.4" style="font-family:Times New Roman;font-size:11.00;">gender :integer</text>
<text text-anchor="start" x="829.5" y="-1806.4" style="font-family:Times New Roman;font-size:11.00;">note :string</text>
<text text-anchor="start" x="829.5" y="-1789.4" style="font-family:Times New Roman;font-size:11.00;">apoe_processor :string</text>
<text text-anchor="start" x="829.5" y="-1772.4" style="font-family:Times New Roman;font-size:11.00;">dob :date</text>
<text text-anchor="start" x="829.5" y="-1755.4" style="font-family:Times New Roman;font-size:11.00;">created_at :datetime</text>
<text text-anchor="start" x="829.5" y="-1738.4" style="font-family:Times New Roman;font-size:11.00;">updated_at :datetime</text>
</g>
<!-- Enrollment -->
<g id="node13" class="node"><title>Enrollment</title>
<polyline style="fill:none;stroke:black;" points="829,-1472 974,-1472 "/>
<path style="fill:none;stroke:black;" d="M974,-1472C980,-1472 986,-1478 986,-1484"/>
<polyline style="fill:none;stroke:black;" points="986,-1484 986,-1646 "/>
<path style="fill:none;stroke:black;" d="M986,-1646C986,-1652 980,-1658 974,-1658"/>
<polyline style="fill:none;stroke:black;" points="974,-1658 829,-1658 "/>
<path style="fill:none;stroke:black;" d="M829,-1658C823,-1658 817,-1652 817,-1646"/>
<polyline style="fill:none;stroke:black;" points="817,-1646 817,-1484 "/>
<path style="fill:none;stroke:black;" d="M817,-1484C817,-1478 823,-1472 829,-1472"/>
<text text-anchor="middle" x="901" y="-1640.9" style="font-family:Times New Roman;font-size:11.00;">Enrollment</text>
<polyline style="fill:none;stroke:black;" points="817,-1633 986,-1633 "/>
<text text-anchor="start" x="824.5" y="-1615.9" style="font-family:Times New Roman;font-size:11.00;">enroll_date :date</text>
<text text-anchor="start" x="824.5" y="-1598.9" style="font-family:Times New Roman;font-size:11.00;">enum :string</text>
<text text-anchor="start" x="824.5" y="-1581.9" style="font-family:Times New Roman;font-size:11.00;">recruitment_source :string</text>
<text text-anchor="start" x="824.5" y="-1564.9" style="font-family:Times New Roman;font-size:11.00;">wrapnum :integer</text>
<text text-anchor="start" x="824.5" y="-1547.9" style="font-family:Times New Roman;font-size:11.00;">created_at :datetime</text>
<text text-anchor="start" x="824.5" y="-1530.9" style="font-family:Times New Roman;font-size:11.00;">updated_at :datetime</text>
<text text-anchor="start" x="824.5" y="-1513.9" style="font-family:Times New Roman;font-size:11.00;">withdrawl_date :date</text>
<text text-anchor="start" x="824.5" y="-1496.9" style="font-family:Times New Roman;font-size:11.00;">withdrawl_reason :text</text>
<text text-anchor="start" x="824.5" y="-1479.9" style="font-family:Times New Roman;font-size:11.00;">withdrawn :boolean</text>
</g>
<!-- Participant&#45;&gt;Enrollment -->
<g id="edge2" class="edge"><title>Participant&#45;&gt;Enrollment</title>
<path style="fill:none;stroke:black;" d="M897,-1720C898,-1702 898,-1684 899,-1666"/>
<polygon style="fill:black;stroke:black;" points="897,-1720 892.5,-1730 897,-1725 897,-1730 897,-1730 897,-1730 897,-1725 901.5,-1730 897,-1720 897,-1720"/>
<ellipse style="fill:black;stroke:black;" cx="899" cy="-1662" rx="4" ry="4"/>
</g>
<!-- User -->
<g id="node5" class="node"><title>User</title>
<polyline style="fill:none;stroke:black;" points="436,-2006 649,-2006 "/>
<path style="fill:none;stroke:black;" d="M649,-2006C655,-2006 661,-2012 661,-2018"/>
<polyline style="fill:none;stroke:black;" points="661,-2018 661,-2197 "/>
<path style="fill:none;stroke:black;" d="M661,-2197C661,-2203 655,-2209 649,-2209"/>
<polyline style="fill:none;stroke:black;" points="649,-2209 436,-2209 "/>
<path style="fill:none;stroke:black;" d="M436,-2209C430,-2209 424,-2203 424,-2197"/>
<polyline style="fill:none;stroke:black;" points="424,-2197 424,-2018 "/>
<path style="fill:none;stroke:black;" d="M424,-2018C424,-2012 430,-2006 436,-2006"/>
<text text-anchor="middle" x="542" y="-2191.9" style="font-family:Times New Roman;font-size:11.00;">User</text>
<polyline style="fill:none;stroke:black;" points="424,-2184 661,-2184 "/>
<text text-anchor="start" x="431.5" y="-2167.4" style="font-family:Times New Roman;font-size:11.00;">login :string</text>
<text text-anchor="start" x="431.5" y="-2150.4" style="font-family:Times New Roman;font-size:11.00;">email :string</text>
<text text-anchor="start" x="431.5" y="-2133.4" style="font-family:Times New Roman;font-size:11.00;">crypted_password :string</text>
<text text-anchor="start" x="431.5" y="-2116.4" style="font-family:Times New Roman;font-size:11.00;">salt :string</text>
<text text-anchor="start" x="431.5" y="-2099.4" style="font-family:Times New Roman;font-size:11.00;">created_at :datetime</text>
<text text-anchor="start" x="431.5" y="-2082.4" style="font-family:Times New Roman;font-size:11.00;">updated_at :datetime</text>
<text text-anchor="start" x="431.5" y="-2065.4" style="font-family:Times New Roman;font-size:11.00;">remember_token :string</text>
<text text-anchor="start" x="431.5" y="-2048.4" style="font-family:Times New Roman;font-size:11.00;">remember_token_expires_at :datetime</text>
<text text-anchor="start" x="431.5" y="-2031.4" style="font-family:Times New Roman;font-size:11.00;">first_name :string</text>
<text text-anchor="start" x="431.5" y="-2014.4" style="font-family:Times New Roman;font-size:11.00;">last_name :string</text>
</g>
<!-- Visit -->
<g id="node6" class="node"><title>Visit</title>
<polyline style="fill:none;stroke:black;" points="717,-976 886,-976 "/>
<path style="fill:none;stroke:black;" d="M886,-976C892,-976 898,-982 898,-988"/>
<polyline style="fill:none;stroke:black;" points="898,-988 898,-1422 "/>
<path style="fill:none;stroke:black;" d="M898,-1422C898,-1428 892,-1434 886,-1434"/>
<polyline style="fill:none;stroke:black;" points="886,-1434 717,-1434 "/>
<path style="fill:none;stroke:black;" d="M717,-1434C711,-1434 705,-1428 705,-1422"/>
<polyline style="fill:none;stroke:black;" points="705,-1422 705,-988 "/>
<path style="fill:none;stroke:black;" d="M705,-988C705,-982 711,-976 717,-976"/>
<text text-anchor="middle" x="801" y="-1416.9" style="font-family:Times New Roman;font-size:11.00;">Visit</text>
<polyline style="fill:none;stroke:black;" points="705,-1409 898,-1409 "/>
<text text-anchor="start" x="712.5" y="-1391.9" style="font-family:Times New Roman;font-size:11.00;">date :date</text>
<text text-anchor="start" x="712.5" y="-1374.9" style="font-family:Times New Roman;font-size:11.00;">scan_number :integer</text>
<text text-anchor="start" x="712.5" y="-1357.9" style="font-family:Times New Roman;font-size:11.00;">initials :string</text>
<text text-anchor="start" x="712.5" y="-1340.9" style="font-family:Times New Roman;font-size:11.00;">rmr :string</text>
<text text-anchor="start" x="712.5" y="-1323.9" style="font-family:Times New Roman;font-size:11.00;">radiology_outcome :string</text>
<text text-anchor="start" x="712.5" y="-1306.9" style="font-family:Times New Roman;font-size:11.00;">notes :string</text>
<text text-anchor="start" x="712.5" y="-1289.9" style="font-family:Times New Roman;font-size:11.00;">transfer_mri :string</text>
<text text-anchor="start" x="712.5" y="-1272.9" style="font-family:Times New Roman;font-size:11.00;">transfer_pet :string</text>
<text text-anchor="start" x="712.5" y="-1255.9" style="font-family:Times New Roman;font-size:11.00;">transfer_behavioral_log :string</text>
<text text-anchor="start" x="712.5" y="-1238.9" style="font-family:Times New Roman;font-size:11.00;">check_imaging :string</text>
<text text-anchor="start" x="712.5" y="-1221.9" style="font-family:Times New Roman;font-size:11.00;">check_np :string</text>
<text text-anchor="start" x="712.5" y="-1204.9" style="font-family:Times New Roman;font-size:11.00;">check_MR5_DVD :string</text>
<text text-anchor="start" x="712.5" y="-1187.9" style="font-family:Times New Roman;font-size:11.00;">burn_DICOM_DVD :string</text>
<text text-anchor="start" x="712.5" y="-1170.9" style="font-family:Times New Roman;font-size:11.00;">first_score :string</text>
<text text-anchor="start" x="712.5" y="-1153.9" style="font-family:Times New Roman;font-size:11.00;">second_score :string</text>
<text text-anchor="start" x="712.5" y="-1136.9" style="font-family:Times New Roman;font-size:11.00;">enter_info_in_db :string</text>
<text text-anchor="start" x="712.5" y="-1119.9" style="font-family:Times New Roman;font-size:11.00;">conference :string</text>
<text text-anchor="start" x="712.5" y="-1102.9" style="font-family:Times New Roman;font-size:11.00;">compile_folder :string</text>
<text text-anchor="start" x="712.5" y="-1085.9" style="font-family:Times New Roman;font-size:11.00;">dicom_dvd :text</text>
<text text-anchor="start" x="712.5" y="-1068.9" style="font-family:Times New Roman;font-size:11.00;">path :string</text>
<text text-anchor="start" x="712.5" y="-1051.9" style="font-family:Times New Roman;font-size:11.00;">created_at :datetime</text>
<text text-anchor="start" x="712.5" y="-1034.9" style="font-family:Times New Roman;font-size:11.00;">updated_at :datetime</text>
<text text-anchor="start" x="712.5" y="-1017.9" style="font-family:Times New Roman;font-size:11.00;">radiology_note :text</text>
<text text-anchor="start" x="712.5" y="-1000.9" style="font-family:Times New Roman;font-size:11.00;">research_diagnosis :string</text>
<text text-anchor="start" x="712.5" y="-983.9" style="font-family:Times New Roman;font-size:11.00;">consent_form_type :string</text>
</g>
<!-- User&#45;&gt;Visit -->
<g id="edge6" class="edge"><title>User&#45;&gt;Visit</title>
<path style="fill:none;stroke:black;" d="M650,-1998C658,-1988 664,-1978 670,-1968 762,-1809 794,-1601 803,-1442"/>
<polygon style="fill:black;stroke:black;" points="650,-1998 640.4,-2003.3 647,-2002 644,-2006 644,-2006 644,-2006 647,-2002 647.6,-2008.7 650,-1998 650,-1998"/>
<ellipse style="fill:black;stroke:black;" cx="803" cy="-1438" rx="4" ry="4"/>
</g>
<!-- Analysis -->
<g id="node8" class="node"><title>Analysis</title>
<polyline style="fill:none;stroke:black;" points="487,-1523 598,-1523 "/>
<path style="fill:none;stroke:black;" d="M598,-1523C604,-1523 610,-1529 610,-1535"/>
<polyline style="fill:none;stroke:black;" points="610,-1535 610,-1595 "/>
<path style="fill:none;stroke:black;" d="M610,-1595C610,-1601 604,-1607 598,-1607"/>
<polyline style="fill:none;stroke:black;" points="598,-1607 487,-1607 "/>
<path style="fill:none;stroke:black;" d="M487,-1607C481,-1607 475,-1601 475,-1595"/>
<polyline style="fill:none;stroke:black;" points="475,-1595 475,-1535 "/>
<path style="fill:none;stroke:black;" d="M475,-1535C475,-1529 481,-1523 487,-1523"/>
<text text-anchor="middle" x="542" y="-1589.9" style="font-family:Times New Roman;font-size:11.00;">Analysis</text>
<polyline style="fill:none;stroke:black;" points="475,-1582 610,-1582 "/>
<text text-anchor="start" x="482.5" y="-1564.9" style="font-family:Times New Roman;font-size:11.00;">description :string</text>
<text text-anchor="start" x="482.5" y="-1547.9" style="font-family:Times New Roman;font-size:11.00;">created_at :datetime</text>
<text text-anchor="start" x="482.5" y="-1530.9" style="font-family:Times New Roman;font-size:11.00;">updated_at :datetime</text>
</g>
<!-- User&#45;&gt;Analysis -->
<g id="edge12" class="edge"><title>User&#45;&gt;Analysis</title>
<path style="fill:none;stroke:black;" d="M629,-1997C634,-1987 638,-1978 641,-1968 678,-1852 680,-1810 641,-1696 638,-1686 608,-1646 581,-1613"/>
<polygon style="fill:black;stroke:black;" points="628.856,-1997.26 620.066,-2003.81 626.428,-2001.63 624,-2006 624,-2006 624,-2006 626.428,-2001.63 627.934,-2008.19 628.856,-1997.26 628.856,-1997.26"/>
<ellipse style="fill:black;stroke:black;" cx="578.561" cy="-1610.07" rx="4.00002" ry="4.00002"/>
</g>
<!-- ImageComment -->
<g id="node9" class="node"><title>ImageComment</title>
<polyline style="fill:none;stroke:black;" points="170,-394 281,-394 "/>
<path style="fill:none;stroke:black;" d="M281,-394C287,-394 293,-400 293,-406"/>
<polyline style="fill:none;stroke:black;" points="293,-406 293,-466 "/>
<path style="fill:none;stroke:black;" d="M293,-466C293,-472 287,-478 281,-478"/>
<polyline style="fill:none;stroke:black;" points="281,-478 170,-478 "/>
<path style="fill:none;stroke:black;" d="M170,-478C164,-478 158,-472 158,-466"/>
<polyline style="fill:none;stroke:black;" points="158,-466 158,-406 "/>
<path style="fill:none;stroke:black;" d="M158,-406C158,-400 164,-394 170,-394"/>
<text text-anchor="middle" x="225" y="-460.9" style="font-family:Times New Roman;font-size:11.00;">ImageComment</text>
<polyline style="fill:none;stroke:black;" points="158,-453 293,-453 "/>
<text text-anchor="start" x="165.5" y="-435.9" style="font-family:Times New Roman;font-size:11.00;">comment :text</text>
<text text-anchor="start" x="165.5" y="-418.9" style="font-family:Times New Roman;font-size:11.00;">created_at :datetime</text>
<text text-anchor="start" x="165.5" y="-401.9" style="font-family:Times New Roman;font-size:11.00;">updated_at :datetime</text>
</g>
<!-- User&#45;&gt;ImageComment -->
<g id="edge8" class="edge"><title>User&#45;&gt;ImageComment</title>
<path style="fill:none;stroke:black;" d="M422,-1999C363,-1940 305,-1871 305,-1832 305,-1832 305,-1832 305,-812 305,-693 266,-557 243,-486"/>
<polygon style="fill:black;stroke:black;" points="421.929,-1998.93 425.818,-2009.18 425.464,-2002.46 429,-2006 429,-2006 429,-2006 425.464,-2002.46 432.182,-2002.82 421.929,-1998.93 421.929,-1998.93"/>
<ellipse style="fill:black;stroke:black;" cx="241.405" cy="-481.745" rx="4.00001" ry="4.00001"/>
</g>
<!-- ImageSearch -->
<g id="node11" class="node"><title>ImageSearch</title>
<polyline style="fill:none;stroke:black;" points="464,-1696 620,-1696 "/>
<path style="fill:none;stroke:black;" d="M620,-1696C626,-1696 632,-1702 632,-1708"/>
<polyline style="fill:none;stroke:black;" points="632,-1708 632,-1955 "/>
<path style="fill:none;stroke:black;" d="M632,-1955C632,-1961 626,-1967 620,-1967"/>
<polyline style="fill:none;stroke:black;" points="620,-1967 464,-1967 "/>
<path style="fill:none;stroke:black;" d="M464,-1967C458,-1967 452,-1961 452,-1955"/>
<polyline style="fill:none;stroke:black;" points="452,-1955 452,-1708 "/>
<path style="fill:none;stroke:black;" d="M452,-1708C452,-1702 458,-1696 464,-1696"/>
<text text-anchor="middle" x="542" y="-1949.9" style="font-family:Times New Roman;font-size:11.00;">ImageSearch</text>
<polyline style="fill:none;stroke:black;" points="452,-1942 632,-1942 "/>
<text text-anchor="start" x="460" y="-1925.4" style="font-family:Times New Roman;font-size:11.00;">rmr :string</text>
<text text-anchor="start" x="460" y="-1908.4" style="font-family:Times New Roman;font-size:11.00;">series_description :string</text>
<text text-anchor="start" x="460" y="-1891.4" style="font-family:Times New Roman;font-size:11.00;">path :string</text>
<text text-anchor="start" x="460" y="-1874.4" style="font-family:Times New Roman;font-size:11.00;">earliest_timestamp :datetime</text>
<text text-anchor="start" x="460" y="-1857.4" style="font-family:Times New Roman;font-size:11.00;">latest_timestamp :datetime</text>
<text text-anchor="start" x="460" y="-1840.4" style="font-family:Times New Roman;font-size:11.00;">created_at :datetime</text>
<text text-anchor="start" x="460" y="-1823.4" style="font-family:Times New Roman;font-size:11.00;">updated_at :datetime</text>
<text text-anchor="start" x="460" y="-1806.4" style="font-family:Times New Roman;font-size:11.00;">enum :string</text>
<text text-anchor="start" x="460" y="-1789.4" style="font-family:Times New Roman;font-size:11.00;">gender :integer</text>
<text text-anchor="start" x="460" y="-1772.4" style="font-family:Times New Roman;font-size:11.00;">min_age :integer</text>
<text text-anchor="start" x="460" y="-1755.4" style="font-family:Times New Roman;font-size:11.00;">max_age :integer</text>
<text text-anchor="start" x="460" y="-1738.4" style="font-family:Times New Roman;font-size:11.00;">min_ed_years :integer</text>
<text text-anchor="start" x="460" y="-1721.4" style="font-family:Times New Roman;font-size:11.00;">max_ed_years :integer</text>
<text text-anchor="start" x="460" y="-1704.4" style="font-family:Times New Roman;font-size:11.00;">apoe_status :integer</text>
</g>
<!-- User&#45;&gt;ImageSearch -->
<g id="edge4" class="edge"><title>User&#45;&gt;ImageSearch</title>
<path style="fill:none;stroke:black;" d="M542,-1996C542,-1989 542,-1982 542,-1975"/>
<polygon style="fill:black;stroke:black;" points="542,-1996 537.5,-2006 542,-2001 542,-2006 542,-2006 542,-2006 542,-2001 546.5,-2006 542,-1996 542,-1996"/>
<ellipse style="fill:black;stroke:black;" cx="542" cy="-1971" rx="4" ry="4"/>
</g>
<!-- ImageDatasetQualityCheck -->
<g id="node12" class="node"><title>ImageDatasetQualityCheck</title>
<polyline style="fill:none;stroke:black;" points="322,-224 526,-224 "/>
<path style="fill:none;stroke:black;" d="M526,-224C532,-224 538,-230 538,-236"/>
<polyline style="fill:none;stroke:black;" points="538,-236 538,-636 "/>
<path style="fill:none;stroke:black;" d="M538,-636C538,-642 532,-648 526,-648"/>
<polyline style="fill:none;stroke:black;" points="526,-648 322,-648 "/>
<path style="fill:none;stroke:black;" d="M322,-648C316,-648 310,-642 310,-636"/>
<polyline style="fill:none;stroke:black;" points="310,-636 310,-236 "/>
<path style="fill:none;stroke:black;" d="M310,-236C310,-230 316,-224 322,-224"/>
<text text-anchor="middle" x="424" y="-630.9" style="font-family:Times New Roman;font-size:11.00;">ImageDatasetQualityCheck</text>
<polyline style="fill:none;stroke:black;" points="310,-623 538,-623 "/>
<text text-anchor="start" x="318" y="-605.9" style="font-family:Times New Roman;font-size:11.00;">created_at :datetime</text>
<text text-anchor="start" x="318" y="-588.9" style="font-family:Times New Roman;font-size:11.00;">updated_at :datetime</text>
<text text-anchor="start" x="318" y="-571.9" style="font-family:Times New Roman;font-size:11.00;">incomplete_series :string</text>
<text text-anchor="start" x="318" y="-554.9" style="font-family:Times New Roman;font-size:11.00;">garbled_series :string</text>
<text text-anchor="start" x="318" y="-537.9" style="font-family:Times New Roman;font-size:11.00;">fov_cutoff :string</text>
<text text-anchor="start" x="318" y="-520.9" style="font-family:Times New Roman;font-size:11.00;">field_inhomogeneity :string</text>
<text text-anchor="start" x="318" y="-503.9" style="font-family:Times New Roman;font-size:11.00;">ghosting_wrapping :string</text>
<text text-anchor="start" x="318" y="-486.9" style="font-family:Times New Roman;font-size:11.00;">banding :string</text>
<text text-anchor="start" x="318" y="-469.9" style="font-family:Times New Roman;font-size:11.00;">registration_risk :string</text>
<text text-anchor="start" x="318" y="-452.9" style="font-family:Times New Roman;font-size:11.00;">motion_warning :string</text>
<text text-anchor="start" x="318" y="-435.9" style="font-family:Times New Roman;font-size:11.00;">omnibus_f :string</text>
<text text-anchor="start" x="318" y="-418.9" style="font-family:Times New Roman;font-size:11.00;">spm_mask :string</text>
<text text-anchor="start" x="318" y="-401.9" style="font-family:Times New Roman;font-size:11.00;">incomplete_series_comment :text</text>
<text text-anchor="start" x="318" y="-384.9" style="font-family:Times New Roman;font-size:11.00;">garbled_series_comment :text</text>
<text text-anchor="start" x="318" y="-367.9" style="font-family:Times New Roman;font-size:11.00;">fov_cutoff_comment :text</text>
<text text-anchor="start" x="318" y="-350.9" style="font-family:Times New Roman;font-size:11.00;">ghosting_wrapping_comment :text</text>
<text text-anchor="start" x="318" y="-333.9" style="font-family:Times New Roman;font-size:11.00;">banding_comment :text</text>
<text text-anchor="start" x="318" y="-316.9" style="font-family:Times New Roman;font-size:11.00;">registration_risk_comment :text</text>
<text text-anchor="start" x="318" y="-299.9" style="font-family:Times New Roman;font-size:11.00;">motion_warning_comment :text</text>
<text text-anchor="start" x="318" y="-282.9" style="font-family:Times New Roman;font-size:11.00;">omnibus_f_comment :text</text>
<text text-anchor="start" x="318" y="-265.9" style="font-family:Times New Roman;font-size:11.00;">spm_mask_comment :text</text>
<text text-anchor="start" x="318" y="-248.9" style="font-family:Times New Roman;font-size:11.00;">other_issues :text</text>
<text text-anchor="start" x="318" y="-231.9" style="font-family:Times New Roman;font-size:11.00;">field_inhomogeneity_comment :text</text>
</g>
<!-- User&#45;&gt;ImageDatasetQualityCheck -->
<g id="edge10" class="edge"><title>User&#45;&gt;ImageDatasetQualityCheck</title>
<path style="fill:none;stroke:black;" d="M457,-1997C452,-1987 447,-1978 443,-1968 421,-1911 424,-1893 424,-1832 424,-1832 424,-1832 424,-812 424,-762 424,-708 424,-656"/>
<polygon style="fill:black;stroke:black;" points="457.144,-1997.26 458.066,-2008.19 459.572,-2001.63 462,-2006 462,-2006 462,-2006 459.572,-2001.63 465.934,-2003.81 457.144,-1997.26 457.144,-1997.26"/>
<ellipse style="fill:black;stroke:black;" cx="424" cy="-652" rx="4" ry="4"/>
</g>
<!-- LogFile -->
<g id="node7" class="node"><title>LogFile</title>
<polyline style="fill:none;stroke:black;" points="758,-394 869,-394 "/>
<path style="fill:none;stroke:black;" d="M869,-394C875,-394 881,-400 881,-406"/>
<polyline style="fill:none;stroke:black;" points="881,-406 881,-466 "/>
<path style="fill:none;stroke:black;" d="M881,-466C881,-472 875,-478 869,-478"/>
<polyline style="fill:none;stroke:black;" points="869,-478 758,-478 "/>
<path style="fill:none;stroke:black;" d="M758,-478C752,-478 746,-472 746,-466"/>
<polyline style="fill:none;stroke:black;" points="746,-466 746,-406 "/>
<path style="fill:none;stroke:black;" d="M746,-406C746,-400 752,-394 758,-394"/>
<text text-anchor="middle" x="813" y="-460.9" style="font-family:Times New Roman;font-size:11.00;">LogFile</text>
<polyline style="fill:none;stroke:black;" points="746,-453 881,-453 "/>
<text text-anchor="start" x="753.5" y="-435.9" style="font-family:Times New Roman;font-size:11.00;">created_at :datetime</text>
<text text-anchor="start" x="753.5" y="-418.9" style="font-family:Times New Roman;font-size:11.00;">updated_at :datetime</text>
<text text-anchor="start" x="753.5" y="-401.9" style="font-family:Times New Roman;font-size:11.00;">filename :string</text>
</g>
<!-- Visit&#45;&gt;LogFile -->
<g id="edge14" class="edge"><title>Visit&#45;&gt;LogFile</title>
<path style="fill:none;stroke:black;" d="M805,-966C807,-796 811,-582 812,-486"/>
<polygon style="fill:black;stroke:black;" points="805,-966 800.5,-976 805,-971 805,-976 805,-976 805,-976 805,-971 809.5,-976 805,-966 805,-966"/>
<ellipse style="fill:black;stroke:black;" cx="812" cy="-482" rx="4" ry="4"/>
</g>
<!-- ImageDataset -->
<g id="node10" class="node"><title>ImageDataset</title>
<polyline style="fill:none;stroke:black;" points="582,-702 729,-702 "/>
<path style="fill:none;stroke:black;" d="M729,-702C735,-702 741,-708 741,-714"/>
<polyline style="fill:none;stroke:black;" points="741,-714 741,-910 "/>
<path style="fill:none;stroke:black;" d="M741,-910C741,-916 735,-922 729,-922"/>
<polyline style="fill:none;stroke:black;" points="729,-922 582,-922 "/>
<path style="fill:none;stroke:black;" d="M582,-922C576,-922 570,-916 570,-910"/>
<polyline style="fill:none;stroke:black;" points="570,-910 570,-714 "/>
<path style="fill:none;stroke:black;" d="M570,-714C570,-708 576,-702 582,-702"/>
<text text-anchor="middle" x="655" y="-904.9" style="font-family:Times New Roman;font-size:11.00;">ImageDataset</text>
<polyline style="fill:none;stroke:black;" points="570,-897 741,-897 "/>
<text text-anchor="start" x="577.5" y="-879.9" style="font-family:Times New Roman;font-size:11.00;">rmr :string</text>
<text text-anchor="start" x="577.5" y="-862.9" style="font-family:Times New Roman;font-size:11.00;">series_description :string</text>
<text text-anchor="start" x="577.5" y="-845.9" style="font-family:Times New Roman;font-size:11.00;">path :string</text>
<text text-anchor="start" x="577.5" y="-828.9" style="font-family:Times New Roman;font-size:11.00;">timestamp :datetime</text>
<text text-anchor="start" x="577.5" y="-811.9" style="font-family:Times New Roman;font-size:11.00;">created_at :datetime</text>
<text text-anchor="start" x="577.5" y="-794.9" style="font-family:Times New Roman;font-size:11.00;">updated_at :datetime</text>
<text text-anchor="start" x="577.5" y="-777.9" style="font-family:Times New Roman;font-size:11.00;">glob :string</text>
<text text-anchor="start" x="577.5" y="-760.9" style="font-family:Times New Roman;font-size:11.00;">rep_time :decimal</text>
<text text-anchor="start" x="577.5" y="-743.9" style="font-family:Times New Roman;font-size:11.00;">bold_reps :integer</text>
<text text-anchor="start" x="577.5" y="-726.9" style="font-family:Times New Roman;font-size:11.00;">slices_per_volume :integer</text>
<text text-anchor="start" x="577.5" y="-709.9" style="font-family:Times New Roman;font-size:11.00;">scanned_file :string</text>
</g>
<!-- Visit&#45;&gt;ImageDataset -->
<g id="edge16" class="edge"><title>Visit&#45;&gt;ImageDataset</title>
<path style="fill:none;stroke:black;" d="M712,-967C708,-955 703,-942 699,-930"/>
<polygon style="fill:black;stroke:black;" points="711.939,-966.862 711.888,-977.828 713.969,-971.431 716,-976 716,-976 716,-976 713.969,-971.431 720.112,-974.172 711.939,-966.862 711.939,-966.862"/>
<ellipse style="fill:black;stroke:black;" cx="697.405" cy="-925.745" rx="4.00001" ry="4.00001"/>
</g>
<!-- NeuropsychSession -->
<g id="node18" class="node"><title>NeuropsychSession</title>
<polyline style="fill:none;stroke:black;" points="886,-753 997,-753 "/>
<path style="fill:none;stroke:black;" d="M997,-753C1003,-753 1009,-759 1009,-765"/>
<polyline style="fill:none;stroke:black;" points="1009,-765 1009,-859 "/>
<path style="fill:none;stroke:black;" d="M1009,-859C1009,-865 1003,-871 997,-871"/>
<polyline style="fill:none;stroke:black;" points="997,-871 886,-871 "/>
<path style="fill:none;stroke:black;" d="M886,-871C880,-871 874,-865 874,-859"/>
<polyline style="fill:none;stroke:black;" points="874,-859 874,-765 "/>
<path style="fill:none;stroke:black;" d="M874,-765C874,-759 880,-753 886,-753"/>
<text text-anchor="middle" x="941" y="-853.9" style="font-family:Times New Roman;font-size:11.00;">NeuropsychSession</text>
<polyline style="fill:none;stroke:black;" points="874,-846 1009,-846 "/>
<text text-anchor="start" x="881.5" y="-828.9" style="font-family:Times New Roman;font-size:11.00;">date :date</text>
<text text-anchor="start" x="881.5" y="-811.9" style="font-family:Times New Roman;font-size:11.00;">note :text</text>
<text text-anchor="start" x="881.5" y="-794.9" style="font-family:Times New Roman;font-size:11.00;">procedure :string</text>
<text text-anchor="start" x="881.5" y="-777.9" style="font-family:Times New Roman;font-size:11.00;">created_at :datetime</text>
<text text-anchor="start" x="881.5" y="-760.9" style="font-family:Times New Roman;font-size:11.00;">updated_at :datetime</text>
</g>
<!-- Visit&#45;&gt;NeuropsychSession -->
<g id="edge18" class="edge"><title>Visit&#45;&gt;NeuropsychSession</title>
<path style="fill:none;stroke:black;" d="M886,-968C897,-935 909,-904 917,-879"/>
<ellipse style="fill:none;stroke:black;" cx="884.405" cy="-972.255" rx="4.00001" ry="4.00001"/>
<ellipse style="fill:black;stroke:black;" cx="918.595" cy="-874.745" rx="4.00001" ry="4.00001"/>
</g>
<!-- LogFileEntry -->
<g id="node17" class="node"><title>LogFileEntry</title>
<polyline style="fill:none;stroke:black;" points="750,-0 877,-0 "/>
<path style="fill:none;stroke:black;" d="M877,-0C883,-0 889,-6 889,-12"/>
<polyline style="fill:none;stroke:black;" points="889,-12 889,-174 "/>
<path style="fill:none;stroke:black;" d="M889,-174C889,-180 883,-186 877,-186"/>
<polyline style="fill:none;stroke:black;" points="877,-186 750,-186 "/>
<path style="fill:none;stroke:black;" d="M750,-186C744,-186 738,-180 738,-174"/>
<polyline style="fill:none;stroke:black;" points="738,-174 738,-12 "/>
<path style="fill:none;stroke:black;" d="M738,-12C738,-6 744,-0 750,-0"/>
<text text-anchor="middle" x="813" y="-168.9" style="font-family:Times New Roman;font-size:11.00;">LogFileEntry</text>
<polyline style="fill:none;stroke:black;" points="738,-161 889,-161 "/>
<text text-anchor="start" x="745.5" y="-143.9" style="font-family:Times New Roman;font-size:11.00;">filename :string</text>
<text text-anchor="start" x="745.5" y="-126.9" style="font-family:Times New Roman;font-size:11.00;">stimulus_type :string</text>
<text text-anchor="start" x="745.5" y="-109.9" style="font-family:Times New Roman;font-size:11.00;">response_type :string</text>
<text text-anchor="start" x="745.5" y="-92.9" style="font-family:Times New Roman;font-size:11.00;">stimulus_code :integer</text>
<text text-anchor="start" x="745.5" y="-75.9" style="font-family:Times New Roman;font-size:11.00;">stimulus_time :integer</text>
<text text-anchor="start" x="745.5" y="-58.9" style="font-family:Times New Roman;font-size:11.00;">response_code :integer</text>
<text text-anchor="start" x="745.5" y="-41.9" style="font-family:Times New Roman;font-size:11.00;">response_time :integer</text>
<text text-anchor="start" x="745.5" y="-24.9" style="font-family:Times New Roman;font-size:11.00;">created_at :datetime</text>
<text text-anchor="start" x="745.5" y="-7.9" style="font-family:Times New Roman;font-size:11.00;">updated_at :datetime</text>
</g>
<!-- LogFile&#45;&gt;LogFileEntry -->
<g id="edge20" class="edge"><title>LogFile&#45;&gt;LogFileEntry</title>
<path style="fill:none;stroke:black;" d="M813,-384C813,-333 813,-257 813,-194"/>
<polygon style="fill:black;stroke:black;" points="813,-384 808.5,-394 813,-389 813,-394 813,-394 813,-394 813,-389 817.5,-394 813,-384 813,-384"/>
<ellipse style="fill:black;stroke:black;" cx="813" cy="-190" rx="4" ry="4"/>
</g>
<!-- Analysis&#45;&gt;AnalysisMembership -->
<g id="edge22" class="edge"><title>Analysis&#45;&gt;AnalysisMembership</title>
<path style="fill:none;stroke:black;" d="M538,-1513C530,-1378 513,-1005 561,-702 573,-628 600,-547 619,-494"/>
<polygon style="fill:black;stroke:black;" points="538.005,-1513.05 534.522,-1523.45 538.502,-1518.02 539,-1523 539,-1523 539,-1523 538.502,-1518.02 543.478,-1522.55 538.005,-1513.05 538.005,-1513.05"/>
<ellipse style="fill:black;stroke:black;" cx="620.595" cy="-489.745" rx="4.00001" ry="4.00001"/>
<text text-anchor="middle" x="601" y="-944.9" style="font-family:Times New Roman;font-size:11.00;">analysis_memberships</text>
</g>
<!-- ImageDataset&#45;&gt;AnalysisMembership -->
<g id="edge28" class="edge"><title>ImageDataset&#45;&gt;AnalysisMembership</title>
<path style="fill:none;stroke:black;" d="M644,-692C644,-689 644,-687 644,-684 641,-619 641,-544 641,-494"/>
<polygon style="fill:black;stroke:black;" points="644.005,-692.05 640.522,-702.448 644.502,-697.025 645,-702 645,-702 645,-702 644.502,-697.025 649.478,-701.552 644.005,-692.05 644.005,-692.05"/>
<ellipse style="fill:black;stroke:black;" cx="641" cy="-490" rx="4" ry="4"/>
<text text-anchor="middle" x="708" y="-670.9" style="font-family:Times New Roman;font-size:11.00;">analysis_memberships</text>
</g>
<!-- ImageDataset&#45;&gt;LogFile -->
<g id="edge24" class="edge"><title>ImageDataset&#45;&gt;LogFile</title>
<path style="fill:none;stroke:black;" d="M746,-725C756,-712 765,-698 772,-684 803,-620 811,-538 813,-486"/>
<ellipse style="fill:none;stroke:black;" cx="743.561" cy="-727.927" rx="4.00002" ry="4.00002"/>
<ellipse style="fill:black;stroke:black;" cx="813" cy="-482" rx="4" ry="4"/>
</g>
<!-- ImageDataset&#45;&gt;ImageComment -->
<g id="edge26" class="edge"><title>ImageDataset&#45;&gt;ImageComment</title>
<path style="fill:none;stroke:black;" d="M560,-777C469,-742 338,-688 301,-648 260,-603 240,-533 231,-486"/>
<polygon style="fill:black;stroke:black;" points="560.715,-777.286 568.329,-785.178 565.358,-779.143 570,-781 570,-781 570,-781 565.358,-779.143 571.671,-776.822 560.715,-777.286 560.715,-777.286"/>
<ellipse style="fill:black;stroke:black;" cx="230.496" cy="-481.969" rx="4.00001" ry="4.00001"/>
</g>
<!-- ImageDataset&#45;&gt;ImageDatasetQualityCheck -->
<g id="edge30" class="edge"><title>ImageDataset&#45;&gt;ImageDatasetQualityCheck</title>
<path style="fill:none;stroke:black;" d="M576,-693C566,-678 556,-662 547,-648 545,-645 544,-643 542,-640"/>
<polygon style="fill:black;stroke:black;" points="576.144,-693.258 577.066,-704.185 578.572,-697.629 581,-702 581,-702 581,-702 578.572,-697.629 584.934,-699.815 576.144,-693.258 576.144,-693.258"/>
<ellipse style="fill:black;stroke:black;" cx="539.985" cy="-636.473" rx="4.00002" ry="4.00002"/>
</g>
<!-- ImageSearch&#45;&gt;Analysis -->
<g id="edge34" class="edge"><title>ImageSearch&#45;&gt;Analysis</title>
<path style="fill:none;stroke:black;" d="M542,-1686C542,-1661 542,-1636 542,-1615"/>
<polygon style="fill:black;stroke:black;" points="542,-1686 537.5,-1696 542,-1691 542,-1696 542,-1696 542,-1696 542,-1691 546.5,-1696 542,-1686 542,-1686"/>
<ellipse style="fill:black;stroke:black;" cx="542" cy="-1611" rx="4" ry="4"/>
</g>
<!-- ScanProcedure -->
<g id="node16" class="node"><title>ScanProcedure</title>
<polyline style="fill:none;stroke:black;" points="639,-1506 750,-1506 "/>
<path style="fill:none;stroke:black;" d="M750,-1506C756,-1506 762,-1512 762,-1518"/>
<polyline style="fill:none;stroke:black;" points="762,-1518 762,-1612 "/>
<path style="fill:none;stroke:black;" d="M762,-1612C762,-1618 756,-1624 750,-1624"/>
<polyline style="fill:none;stroke:black;" points="750,-1624 639,-1624 "/>
<path style="fill:none;stroke:black;" d="M639,-1624C633,-1624 627,-1618 627,-1612"/>
<polyline style="fill:none;stroke:black;" points="627,-1612 627,-1518 "/>
<path style="fill:none;stroke:black;" d="M627,-1518C627,-1512 633,-1506 639,-1506"/>
<text text-anchor="middle" x="694" y="-1606.9" style="font-family:Times New Roman;font-size:11.00;">ScanProcedure</text>
<polyline style="fill:none;stroke:black;" points="627,-1599 762,-1599 "/>
<text text-anchor="start" x="634.5" y="-1581.9" style="font-family:Times New Roman;font-size:11.00;">codename :string</text>
<text text-anchor="start" x="634.5" y="-1564.9" style="font-family:Times New Roman;font-size:11.00;">created_at :datetime</text>
<text text-anchor="start" x="634.5" y="-1547.9" style="font-family:Times New Roman;font-size:11.00;">updated_at :datetime</text>
<text text-anchor="start" x="634.5" y="-1530.9" style="font-family:Times New Roman;font-size:11.00;">description :string</text>
<text text-anchor="start" x="634.5" y="-1513.9" style="font-family:Times New Roman;font-size:11.00;">version :decimal</text>
</g>
<!-- ImageSearch&#45;&gt;ScanProcedure -->
<g id="edge32" class="edge"><title>ImageSearch&#45;&gt;ScanProcedure</title>
<path style="fill:none;stroke:black;" d="M625,-1687C635,-1668 645,-1650 655,-1633"/>
<polygon style="fill:black;stroke:black;" points="624.856,-1687.26 616.066,-1693.81 622.428,-1691.63 620,-1696 620,-1696 620,-1696 622.428,-1691.63 623.934,-1698.19 624.856,-1687.26 624.856,-1687.26"/>
<polygon style="fill:black;stroke:black;" points="655.144,-1632.74 663.934,-1626.19 657.572,-1628.37 660,-1624 660,-1624 660,-1624 657.572,-1628.37 656.066,-1621.81 655.144,-1632.74 655.144,-1632.74"/>
</g>
<!-- Enrollment&#45;&gt;Visit -->
<g id="edge36" class="edge"><title>Enrollment&#45;&gt;Visit</title>
<path style="fill:none;stroke:black;" d="M872,-1462C871,-1455 869,-1449 866,-1442"/>
<polygon style="fill:black;stroke:black;" points="872.126,-1462.42 870.69,-1473.29 873.563,-1467.21 875,-1472 875,-1472 875,-1472 873.563,-1467.21 879.31,-1470.71 872.126,-1462.42 872.126,-1462.42"/>
<ellipse style="fill:black;stroke:black;" cx="864.97" cy="-1437.88" rx="4.00001" ry="4.00001"/>
</g>
<!-- RecruitmentGroup -->
<g id="node14" class="node"><title>RecruitmentGroup</title>
<polyline style="fill:none;stroke:black;" points="998,-1781 1109,-1781 "/>
<path style="fill:none;stroke:black;" d="M1109,-1781C1115,-1781 1121,-1787 1121,-1793"/>
<polyline style="fill:none;stroke:black;" points="1121,-1793 1121,-1870 "/>
<path style="fill:none;stroke:black;" d="M1121,-1870C1121,-1876 1115,-1882 1109,-1882"/>
<polyline style="fill:none;stroke:black;" points="1109,-1882 998,-1882 "/>
<path style="fill:none;stroke:black;" d="M998,-1882C992,-1882 986,-1876 986,-1870"/>
<polyline style="fill:none;stroke:black;" points="986,-1870 986,-1793 "/>
<path style="fill:none;stroke:black;" d="M986,-1793C986,-1787 992,-1781 998,-1781"/>
<text text-anchor="middle" x="1053" y="-1864.9" style="font-family:Times New Roman;font-size:11.00;">RecruitmentGroup</text>
<polyline style="fill:none;stroke:black;" points="986,-1857 1121,-1857 "/>
<text text-anchor="start" x="993.5" y="-1840.4" style="font-family:Times New Roman;font-size:11.00;">name :string</text>
<text text-anchor="start" x="993.5" y="-1823.4" style="font-family:Times New Roman;font-size:11.00;">description :text</text>
<text text-anchor="start" x="993.5" y="-1806.4" style="font-family:Times New Roman;font-size:11.00;">created_at :datetime</text>
<text text-anchor="start" x="993.5" y="-1789.4" style="font-family:Times New Roman;font-size:11.00;">updated_at :datetime</text>
</g>
<!-- RecruitmentGroup&#45;&gt;Enrollment -->
<g id="edge38" class="edge"><title>RecruitmentGroup&#45;&gt;Enrollment</title>
<path style="fill:none;stroke:black;" d="M1020,-1772C1007,-1748 991,-1721 977,-1696 971,-1686 966,-1676 959,-1665"/>
<polygon style="fill:black;stroke:black;" points="1020.14,-1772.26 1021.07,-1783.19 1022.57,-1776.63 1025,-1781 1025,-1781 1025,-1781 1022.57,-1776.63 1028.93,-1778.81 1020.14,-1772.26 1020.14,-1772.26"/>
<ellipse style="fill:black;stroke:black;" cx="956.985" cy="-1661.47" rx="4.00002" ry="4.00002"/>
</g>
<!-- Study -->
<g id="node15" class="node"><title>Study</title>
<polyline style="fill:none;stroke:black;" points="998,-2049 1109,-2049 "/>
<path style="fill:none;stroke:black;" d="M1109,-2049C1115,-2049 1121,-2055 1121,-2061"/>
<polyline style="fill:none;stroke:black;" points="1121,-2061 1121,-2155 "/>
<path style="fill:none;stroke:black;" d="M1121,-2155C1121,-2161 1115,-2167 1109,-2167"/>
<polyline style="fill:none;stroke:black;" points="1109,-2167 998,-2167 "/>
<path style="fill:none;stroke:black;" d="M998,-2167C992,-2167 986,-2161 986,-2155"/>
<polyline style="fill:none;stroke:black;" points="986,-2155 986,-2061 "/>
<path style="fill:none;stroke:black;" d="M986,-2061C986,-2055 992,-2049 998,-2049"/>
<text text-anchor="middle" x="1053" y="-2149.9" style="font-family:Times New Roman;font-size:11.00;">Study</text>
<polyline style="fill:none;stroke:black;" points="986,-2142 1121,-2142 "/>
<text text-anchor="start" x="993.5" y="-2124.9" style="font-family:Times New Roman;font-size:11.00;">name :string</text>
<text text-anchor="start" x="993.5" y="-2107.9" style="font-family:Times New Roman;font-size:11.00;">description :text</text>
<text text-anchor="start" x="993.5" y="-2090.9" style="font-family:Times New Roman;font-size:11.00;">investigator :string</text>
<text text-anchor="start" x="993.5" y="-2073.9" style="font-family:Times New Roman;font-size:11.00;">created_at :datetime</text>
<text text-anchor="start" x="993.5" y="-2056.9" style="font-family:Times New Roman;font-size:11.00;">updated_at :datetime</text>
</g>
<!-- Study&#45;&gt;RecruitmentGroup -->
<g id="edge40" class="edge"><title>Study&#45;&gt;RecruitmentGroup</title>
<path style="fill:none;stroke:black;" d="M1053,-2039C1053,-1993 1053,-1934 1053,-1890"/>
<polygon style="fill:black;stroke:black;" points="1053,-2039 1048.5,-2049 1053,-2044 1053,-2049 1053,-2049 1053,-2049 1053,-2044 1057.5,-2049 1053,-2039 1053,-2039"/>
<ellipse style="fill:black;stroke:black;" cx="1053" cy="-1886" rx="4" ry="4"/>
</g>
<!-- ScanProcedure&#45;&gt;Visit -->
<g id="edge42" class="edge"><title>ScanProcedure&#45;&gt;Visit</title>
<path style="fill:none;stroke:black;" d="M715,-1496C719,-1480 725,-1462 731,-1442"/>
<polygon style="fill:black;stroke:black;" points="714.874,-1496.42 707.69,-1504.71 713.437,-1501.21 712,-1506 712,-1506 712,-1506 713.437,-1501.21 716.31,-1507.29 714.874,-1496.42 714.874,-1496.42"/>
<ellipse style="fill:black;stroke:black;" cx="732.03" cy="-1437.88" rx="4.00001" ry="4.00001"/>
</g>
<!-- NeuropsychAssessment -->
<g id="node19" class="node"><title>NeuropsychAssessment</title>
<polyline style="fill:none;stroke:black;" points="910,-368 1039,-368 "/>
<path style="fill:none;stroke:black;" d="M1039,-368C1045,-368 1051,-374 1051,-380"/>
<polyline style="fill:none;stroke:black;" points="1051,-380 1051,-491 "/>
<path style="fill:none;stroke:black;" d="M1051,-491C1051,-497 1045,-503 1039,-503"/>
<polyline style="fill:none;stroke:black;" points="1039,-503 910,-503 "/>
<path style="fill:none;stroke:black;" d="M910,-503C904,-503 898,-497 898,-491"/>
<polyline style="fill:none;stroke:black;" points="898,-491 898,-380 "/>
<path style="fill:none;stroke:black;" d="M898,-380C898,-374 904,-368 910,-368"/>
<text text-anchor="middle" x="974" y="-485.9" style="font-family:Times New Roman;font-size:11.00;">NeuropsychAssessment</text>
<polyline style="fill:none;stroke:black;" points="898,-478 1051,-478 "/>
<text text-anchor="start" x="905.5" y="-461.4" style="font-family:Times New Roman;font-size:11.00;">score :decimal</text>
<text text-anchor="start" x="905.5" y="-444.4" style="font-family:Times New Roman;font-size:11.00;">score_type :string</text>
<text text-anchor="start" x="905.5" y="-427.4" style="font-family:Times New Roman;font-size:11.00;">test_name :string</text>
<text text-anchor="start" x="905.5" y="-410.4" style="font-family:Times New Roman;font-size:11.00;">note :text</text>
<text text-anchor="start" x="905.5" y="-393.4" style="font-family:Times New Roman;font-size:11.00;">created_at :datetime</text>
<text text-anchor="start" x="905.5" y="-376.4" style="font-family:Times New Roman;font-size:11.00;">updated_at :datetime</text>
</g>
<!-- NeuropsychSession&#45;&gt;NeuropsychAssessment -->
<g id="edge44" class="edge"><title>NeuropsychSession&#45;&gt;NeuropsychAssessment</title>
<path style="fill:none;stroke:black;" d="M947,-743C953,-677 961,-579 967,-511"/>
<polygon style="fill:black;stroke:black;" points="946.995,-743.05 941.522,-752.552 946.498,-748.025 946,-753 946,-753 946,-753 946.498,-748.025 950.478,-753.448 946.995,-743.05 946.995,-743.05"/>
<ellipse style="fill:black;stroke:black;" cx="967.504" cy="-506.969" rx="4.00001" ry="4.00001"/>
</g>
</g>
</svg>
